Coordinates
version=1
nRows=8
nColumns=40
inDegrees=yes

Units are S.I. units (second, meters, Newtons, ...)
Angles are in degrees.

endheader
time	pelvis_tilt	pelvis_list	pelvis_rotation	pelvis_tx	pelvis_ty	pelvis_tz	hip_flexion_r	hip_adduction_r	hip_rotation_r	knee_angle_r	knee_angle_r_beta	ankle_angle_r	subtalar_angle_r	mtp_angle_r	hip_flexion_l	hip_adduction_l	hip_rotation_l	knee_angle_l	knee_angle_l_beta	ankle_angle_l	subtalar_angle_l	mtp_angle_l	lumbar_extension	lumbar_bending	lumbar_rotation	arm_flex_r	arm_add_r	arm_rot_r	elbow_flex_r	pro_sup_r	wrist_flex_r	wrist_dev_r	arm_flex_l	arm_add_l	arm_rot_l	elbow_flex_l	pro_sup_l	wrist_flex_l	wrist_dev_l
     39.01000000	     -3.76615113	     -5.08185835	      4.70484996	      0.87179135	      0.92393544	      0.49615269	      2.88082998	      4.31191029	    -18.07938840	     13.76068226	     13.76068226	     15.81250619	      0.12405278	     -5.58378201	     28.85606353	     -8.05559611	     -2.45928895	     21.08376806	     21.08376806	      2.61015336	     -9.14019993	      5.59923575	    -10.22476129	      9.03526063	      2.93062779	     21.88861645	    -18.76406116	     -1.96091544	     45.88151196	     45.39792416	      0.00000000	      0.00000000	     -9.33998371	    -11.52060906	    -10.91459347	     54.34809717	     47.18305399	      0.00000000	      0.00000000
     39.02371429	     -3.80359657	     -5.13358949	      4.44680489	      0.87249467	      0.92312170	      0.49466809	      2.49337470	      4.22882034	    -17.98197361	     14.03774556	     14.03774556	     16.65410930	      0.60544547	     -4.28340058	     28.45898914	     -7.96831069	     -1.96416959	     21.71037533	     21.71037533	      2.61900289	    -10.09223309	      5.38637805	    -10.04885821	      8.95770958	      3.08897547	     20.75194924	    -18.59421812	     -3.50013228	     45.76069540	     45.48184327	      0.00000000	      0.00000000	     -9.37523725	    -11.40762184	    -11.68164831	     54.29477776	     47.21381479	      0.00000000	      0.00000000
     39.03742857	     -3.81499661	     -5.11387414	      4.21558111	      0.87321592	      0.92249435	      0.49306479	      2.04527620	      4.09736953	    -17.73100497	     14.18802912	     14.18802912	     16.91472459	      0.61114597	     -4.33140437	     28.04099055	     -7.87894097	     -1.82760721	     22.27597221	     22.27597221	      2.95027593	    -10.41694281	      5.18034746	     -9.88359700	      8.82397255	      2.88244611	     19.80820332	    -18.49811026	     -3.50997123	     45.41557140	     45.48979447	      0.00000000	      0.00000000	     -9.68395969	    -11.55823781	    -11.75686711	     54.15899300	     47.21435070	      0.00000000	      0.00000000
     39.05114286	     -3.85439064	     -5.08828509	      4.00815742	      0.87381150	      0.92187023	      0.49126070	      1.72284197	      3.91711593	    -17.45120229	     14.50553151	     14.50553151	     17.19005590	      0.49023588	     -4.29312450	     27.83064966	     -7.74013630	     -1.54768234	     23.05756678	     23.05756678	      3.37460829	    -11.04474580	      4.90965147	     -9.74914427	      8.69034210	      2.78155342	     18.83448005	    -18.52815759	     -3.65275136	     44.98057060	     45.50806090	      0.00000000	      0.00000000	     -9.73064969	    -11.72953285	    -11.88585975	     54.11018303	     47.22083463	      0.00000000	      0.00000000
     39.06485714	     -3.94238152	     -5.03839409	      3.83199699	      0.87422052	      0.92134812	      0.48926087	      1.59412558	      3.66167293	    -17.17014701	     15.06986954	     15.06986954	     17.46038792	      0.16199381	     -4.08932868	     27.70099907	     -7.51886318	     -1.16099183	     23.76593319	     23.76593319	      3.82085243	    -11.89759477	      4.72292303	     -9.57657425	      8.52639652	      2.77514810	     17.67751027	    -18.61235182	     -4.05160201	     44.43763459	     45.54254454	      0.00000000	      0.00000000	     -9.69532871	    -11.80019470	    -12.03451960	     54.01946468	     47.22581611	      0.00000000	      0.00000000
     39.07857143	     -3.98777020	     -4.92810125	      3.70332481	      0.87462782	      0.92110592	      0.48702506	      1.42801388	      3.32071869	    -16.91734350	     15.65376851	     15.65376851	     17.69077959	     -0.13919206	     -3.82437443	     27.52534752	     -7.22284270	     -0.82315309	     24.41661970	     24.41661970	      4.33932960	    -12.69405498	      4.62067242	     -9.47863315	      8.32310078	      2.67136726	     16.51088567	    -18.63066974	     -4.58369939	     43.93102987	     45.58210810	      0.00000000	      0.00000000	     -9.60835132	    -11.92055376	    -12.16193168	     53.87889171	     47.22815793	      0.00000000	      0.00000000
     39.09228571	     -3.94356852	     -4.82664591	      3.64560840	      0.87515021	      0.92125951	      0.48454629	      1.02248282	      3.01229885	    -16.78683825	     15.95206756	     15.95206756	     17.71434776	     -0.25051026	     -3.77102206	     27.19529665	     -6.96329472	     -0.64422783	     24.91666667	     24.91666667	      4.92326852	    -13.07618402	      4.38500605	     -9.45124268	      8.17226861	      2.22980967	     15.40931733	    -18.59356281	     -4.69453847	     43.51935967	     45.59634361	      0.00000000	      0.00000000	     -9.75369448	    -12.06105992	    -12.22923666	     53.77363084	     47.22999145	      0.00000000	      0.00000000
     39.10600000	     -4.09533179	     -4.67561137	      3.58192613	      0.87531785	      0.92119737	      0.48189613	      1.21737281	      2.50823558	    -16.62755441	     17.03319692	     17.03319692	     18.31960038	     -0.45898010	     -2.16047759	     27.27090719	     -6.53291909	     -0.18421168	     25.74471401	     25.74471401	      5.96659735	    -13.99434493	      5.95677766	     -9.29613881	      7.93602306	      2.75235148	     13.67881277	    -18.28041840	     -8.56227860	     42.94934273	     45.80248403	      0.00000000	      0.00000000	     -8.87069452	    -12.22472636	    -12.03047255	     53.10208290	     47.16715948	      0.00000000	      0.00000000
